<svg xmlns="http://www.w3.org/2000/svg" data-name="Layer 1" width="813.61811" height="712.2585" viewBox="0 0 813.61811 712.2585" xmlnsXlink="http://www.w3.org/1999/xlink">        
        <polygon points="501.384 26 461.414 91.898 501.298 115.501 501.384 26" fill="#8c8c8c"/>
        <polygon points="461.549 92.033 501.298 73.916 501.249 115.529 461.549 92.033" fill="#383838"/>
        <polygon points="501.211 26 541.182 91.898 501.298 115.501 501.211 26" fill="#333"/>
        <polygon points="541.047 92.033 501.298 73.916 501.346 115.529 541.047 92.033" fill="#141414"/>
        <polygon points="461.549 99.595 501.249 155.5 501.249 123.091 461.549 99.595" fill="#8c8c8c"/>
        <polygon points="540.95 99.595 501.249 155.5 501.249 123.091 540.95 99.595" fill="#333"/>
        <path d="M694.80906,296.87075c-21.47217,0-42.86426-14.75928-60.23609-41.55908-15.2749-23.56494-24.76391-52.85547-24.76391-76.44092a85,85,0,1,1,170,0c0,23.58545-9.489,52.876-24.76392,76.44092C737.67331,282.11147,716.28122,296.87075,694.80906,296.87075Zm0-201a83.09384,83.09384,0,0,0-83,83c0,45.80762,37.18383,116,83,116s83-70.19238,83-116A83.09385,83.09385,0,0,0,694.80906,95.87075Z" transform="translate(-193.19094 -93.87075)" fill="#3f3d56"/>
        <path d="M702.82248,314.87075H686.79563a4.99984,4.99984,0,0,1-4.88086-6.08447l3.092-13.91553H704.6113l3.092,13.91553a4.99984,4.99984,0,0,1-4.88086,6.08447Zm-16.21118-18-2.74438,12.34912a3.0002,3.0002,0,0,0,2.92871,3.65088h16.02685a3.0002,3.0002,0,0,0,2.92871-3.65088l-2.74438-12.34912Z" transform="translate(-193.19094 -93.87075)" fill="#3f3d56"/>
        <path d="M655.24913,118.73207a58.4403,58.4403,0,0,0-26.39551,35.90807,56.1951,56.1951,0,0,0-1.62463,12.73165,1.5009,1.5009,0,0,0,3,0,55.38506,55.38506,0,0,1,16.821-38.60748,52.63215,52.63215,0,0,1,9.71327-7.44182,1.50112,1.50112,0,0,0-1.51416-2.59042Z" transform="translate(-193.19094 -93.87075)" fill="#3f3d56"/>
        <path d="M680.91654,298.75515c18.12262-.92765,38.74522-1.422,52.869,11.94557,5.89108,5.57568,9.60778,13.04755,9.38366,21.26143-.24389,8.9385-4.78918,17.31157-10.42206,24.02662-12.12594,14.45556-29.90953,23.49395-46.96391,30.77883-18.126,7.74265-37.00889,13.789-54.42431,23.13207C616.068,418.103,601.81494,429.176,592.57768,444.093a62.48306,62.48306,0,0,0-8.8561,23.75627,67.38471,67.38471,0,0,0,1.26309,25.37213c4.06791,17.01383,14.08316,32.05049,27.42863,43.22353,13.50543,11.307,29.86609,18.83645,46.81635,23.335,20.12215,5.3403,41.08822,6.549,61.821,6.66982,21.41283.12473,42.84346-.923,64.24146.27721,5.20489.29194,10.40073.72292,15.57931,1.323,1.91429.22181,1.8984-2.78,0-3-21.37675-2.477-42.9212-1.90954-64.39379-1.66672-21.0512.23806-42.28077.16475-63.0709-3.552-17.92524-3.20462-35.50032-9.21059-50.70307-19.397-14.56244-9.75735-26.43061-23.43911-32.43634-40.041-5.8664-16.21681-5.805-34.16408,2.05032-49.71034,7.8653-15.5661,21.585-27.34159,36.49353-35.93455,17.20467-9.91642,36.14888-16.12221,54.42574-23.6834C700.5,383.92305,718.157,375.407,731.41794,361.90558c6.14112-6.25251,11.40149-13.86221,13.65264-22.42406a30.33265,30.33265,0,0,0-3.403-23.90111,40.57685,40.57685,0,0,0-17.84641-15.04457c-8.80276-3.96638-18.56975-5.1098-28.14049-5.20641-4.92495-.04971-9.847.174-14.76417.42572-1.92106.09833-1.93276,3.09893,0,3Z" transform="translate(-193.19094 -93.87075)" fill="#3f3d56"/>
</svg>