<svg width="52" height="48" viewBox="0 0 52 48" fill="none" xmlns="http://www.w3.org/2000/svg">
<path d="M5.62502 23.4375C1.16418 15.9543 9.62651 11.6055 14.4583 10.6875C30.514 -2.95924 43.7022 10.3826 45.375 19.1875C47.0467 27.9925 46.6536 35.0113 47.5833 38.3125C40.4471 29.0688 35.5733 30.7061 34.3333 33C32.1029 37.403 28.4658 37.5178 26.6042 36.1875C22.1433 32.6664 15.0369 39.5896 12.25 43.625C17.6019 34.3813 18.3285 28.4599 17.7708 26.625C15.5404 17.8211 8.59854 20.8705 5.62502 23.4375Z" fill="white" stroke="white" stroke-width="8.33333" stroke-linecap="round" stroke-linejoin="round"/>
<path d="M24.3958 18.125C25.6155 18.125 26.6042 17.1736 26.6042 16C26.6042 14.8264 25.6155 13.875 24.3958 13.875C23.1762 13.875 22.1875 14.8264 22.1875 16C22.1875 17.1736 23.1762 18.125 24.3958 18.125Z" fill="black"/>
</svg>
